<svg width="153" height="166" viewBox="0 0 153 166" fill="none" xmlns="http://www.w3.org/2000/svg">
<path d="M141.441 153.39V151.521H152.162V153.39H141.441ZM145.803 157.955V146.568H147.79V157.955H145.803Z" fill="#FD9A57"/>
<path d="M141.441 118.39V116.521H152.162V118.39H141.441ZM145.803 122.955V111.568H147.79V122.955H145.803Z" fill="#D2D2D2"/>
<path d="M141.441 83.3896V81.5205H152.162V83.3896H141.441ZM145.803 87.9551V76.5684H147.79V87.9551H145.803Z" fill="#D2D2D2"/>
<path d="M106.441 153.39V151.521H117.162V153.39H106.441ZM110.803 157.955V146.568H112.79V157.955H110.803Z" fill="#D2D2D2"/>
<path d="M106.441 118.39V116.521H117.162V118.39H106.441ZM110.803 122.955V111.568H112.79V122.955H110.803Z" fill="#D2D2D2"/>
<path d="M106.441 83.3896V81.5205H117.162V83.3896H106.441ZM110.803 87.9551V76.5684H112.79V87.9551H110.803Z" fill="#D2D2D2"/>
<path d="M106.441 48.3896V46.5205H117.162V48.3896H106.441ZM110.803 52.9551V41.5684H112.79V52.9551H110.803Z" fill="#D2D2D2"/>
<path d="M71.4414 153.39V151.521H82.1621V153.39H71.4414ZM75.8027 157.955V146.568H77.79V157.955H75.8027Z" fill="#D2D2D2"/>
<path d="M71.4414 118.39V116.521H82.1621V118.39H71.4414ZM75.8027 122.955V111.568H77.79V122.955H75.8027Z" fill="#D2D2D2"/>
<path d="M71.4414 83.3896V81.5205H82.1621V83.3896H71.4414ZM75.8027 87.9551V76.5684H77.79V87.9551H75.8027Z" fill="#001AFF"/>
<path d="M71.4414 48.3896V46.5205H82.1621V48.3896H71.4414ZM75.8027 52.9551V41.5684H77.79V52.9551H75.8027Z" fill="#D2D2D2"/>
<path d="M71.4414 13.3896V11.5205H82.1621V13.3896H71.4414ZM75.8027 17.9551V6.56836H77.79V17.9551H75.8027Z" fill="#D2D2D2"/>
<path d="M36.4414 153.39V151.521H47.1621V153.39H36.4414ZM40.8027 157.955V146.568H42.79V157.955H40.8027Z" fill="#D2D2D2"/>
<path d="M36.4414 118.39V116.521H47.1621V118.39H36.4414ZM40.8027 122.955V111.568H42.79V122.955H40.8027Z" fill="#D2D2D2"/>
<path d="M36.4414 83.3896V81.5205H47.1621V83.3896H36.4414ZM40.8027 87.9551V76.5684H42.79V87.9551H40.8027Z" fill="#D2D2D2"/>
<path d="M36.4414 48.3896V46.5205H47.1621V48.3896H36.4414ZM40.8027 52.9551V41.5684H42.79V52.9551H40.8027Z" fill="#D2D2D2"/>
<path d="M36.4414 13.3896V11.5205H47.1621V13.3896H36.4414ZM40.8027 17.9551V6.56836H42.79V17.9551H40.8027Z" fill="#D2D2D2"/>
<path d="M1.44141 153.39V151.521H12.1621V153.39H1.44141ZM5.80273 157.955V146.568H7.79004V157.955H5.80273Z" fill="#D2D2D2"/>
<path d="M1.44141 118.39V116.521H12.1621V118.39H1.44141ZM5.80273 122.955V111.568H7.79004V122.955H5.80273Z" fill="#D2D2D2"/>
<path d="M1.44141 83.3896V81.5205H12.1621V83.3896H1.44141ZM5.80273 87.9551V76.5684H7.79004V87.9551H5.80273Z" fill="#D2D2D2"/>
<path d="M1.44141 48.3896V46.5205H12.1621V48.3896H1.44141ZM5.80273 52.9551V41.5684H7.79004V52.9551H5.80273Z" fill="#D2D2D2"/>
<path d="M1.44141 13.3896V11.5205H12.1621V13.3896H1.44141ZM5.80273 17.9551V6.56836H7.79004V17.9551H5.80273Z" fill="#D2D2D2"/>
</svg>
